# xmcd
#
# Track frame offsets: 
#        150
#        14647
#        36754
#        51533
#        65604
#        81276
#        102916
#        118272
#        157416
#        169260
#        195797
#        214794
#        240835
#        257750
#
# Disc length: 3458 seconds
#
# Revision: 0
# Processed by: cddbd v1.5.2PL0 Copyright (c) Steve Scherf et al.
# Submitted via: ExactAudioCopyFreeDBPlugin 1.0
#
DISCID=c70d800e
DTITLE=Andreas Martin Hofmeir - Kein Aufwand
DYEAR=2016
DGENRE=Other
TTITLE0=Pausenanalyse
TTITLE1=Garota de Ipanema
TTITLE2=÷mer
TTITLE3=Edu Lobo und der Bayrische Wald
TTITLE4=Beatriz
TTITLE5=Max
TTITLE6=Calma
TTITLE7=Sebastian Weber
TTITLE8=Eu e a Brisa
TTITLE9=Morgenstund
TTITLE10=Very good Morning
TTITLE11=Tuppa plouﬂen
TTITLE12=Oblivion
TTITLE13=Absage
EXTD=
EXTT0=
EXTT1=
EXTT2=
EXTT3=
EXTT4=
EXTT5=
EXTT6=
EXTT7=
EXTT8=
EXTT9=
EXTT10=
EXTT11=
EXTT12=
EXTT13=
PLAYORDER=
